<svg width="65" height="81" viewBox="0 0 65 81" fill="none" xmlns="http://www.w3.org/2000/svg">
<mask id="path-1-outside-1_1_1886" maskUnits="userSpaceOnUse" x="-0.00268555" y="0.000976562" width="65" height="81" fill="black">
<rect fill="white" x="-0.00268555" y="0.000976562" width="65" height="81"/>
<path d="M60.9772 58.6486L60.3565 57.7901L45.5988 40.8055L60.3746 23.7972L60.9808 22.9532C62.9448 20.0823 63.9962 16.6852 63.9973 13.2068C63.9973 8.44968 62.2114 5.20086 58.5378 3.27153C55.5849 1.72697 51.3378 1.00098 45.1705 1.00098C44.0524 1.00098 42.9925 1.02457 42.0015 1.07358C41.0069 1.02518 39.9512 1.00098 38.8344 1.00098C37.7145 1.00098 36.6564 1.02457 35.6654 1.07358C34.669 1.02457 33.6144 1.00098 32.4964 1.00098C31.3784 1.00098 30.3184 1.02457 29.3293 1.07358C28.3328 1.02457 27.2783 1.00098 26.1603 1.00098C25.0423 1.00098 23.9823 1.02457 22.9913 1.07358C22.0016 1.02518 20.9458 1.00098 19.8242 1.00098C13.6532 1.00098 9.40797 1.72697 6.4568 3.27153C2.78327 5.20086 0.997323 8.44242 0.997323 13.2068C0.995616 16.5546 1.96941 19.8305 3.79966 22.6338C4.12454 23.1347 4.47847 23.6284 4.86324 24.1094L19.4122 40.8073L4.85417 57.5051C4.47847 57.977 4.12817 58.4689 3.79966 58.9717C1.96792 61.7763 0.994031 65.0543 0.997323 68.4041C0.997323 73.1594 2.78327 76.41 6.4568 78.3376C9.40797 79.8876 13.655 80.6099 19.8242 80.6099C20.9422 80.6099 21.9979 80.5857 22.9913 80.5373C23.9878 80.5845 25.0423 80.6099 26.1603 80.6099C27.2783 80.6099 28.3383 80.5845 29.3293 80.5373C30.3239 80.5845 31.3796 80.6087 32.4964 80.6099C33.6144 80.6099 34.6744 80.5845 35.6654 80.5373C36.6618 80.5845 37.7145 80.6099 38.8344 80.6099C39.9542 80.6099 41.0123 80.5845 42.0015 80.5373C42.9979 80.5845 44.0524 80.6099 45.1705 80.6099C51.3414 80.6099 55.5849 79.8839 58.5378 78.3376C62.2114 76.41 63.9973 73.1594 63.9973 68.4041C63.9965 64.9223 62.9438 61.5219 60.9772 58.6486ZM42.0015 79.9112L41.3318 79.8767C42.9085 79.5772 44.4357 79.0591 45.8692 78.3376C49.5428 76.41 51.3287 73.1594 51.3287 68.4041C51.3308 64.9218 50.2778 61.5206 48.3086 58.6486L47.6879 57.7901L39.2591 48.0872L42.016 44.9237L53.5321 58.1731L54.1292 59.0025C56.0224 61.7688 57.0347 65.043 57.0332 68.3951C57.026 77.4228 50.149 79.5463 42.0015 79.9112ZM7.96687 68.4041C7.96667 67.4354 8.0517 66.4685 8.22097 65.5147C8.61328 63.3071 9.44596 61.201 10.6694 59.3219C10.9816 58.8373 11.3246 58.3618 11.6785 57.9171L22.9968 44.9237L25.741 48.0817L17.5282 57.5106C17.1525 57.9825 16.8022 58.4743 16.4737 58.9771C14.643 61.7802 13.6691 65.0562 13.6714 68.4041C13.6714 73.1594 15.4573 76.41 19.1309 78.3376C20.5642 79.0597 22.0915 79.5777 23.6683 79.8767L22.9968 79.9112C14.8457 79.5463 7.96687 77.4228 7.96687 68.4041ZM22.9913 1.69975C23.2164 1.69975 23.4396 1.72153 23.6629 1.73423C22.0859 2.03175 20.5585 2.54923 19.1254 3.27153C15.4573 5.20086 13.6714 8.44242 13.6714 13.2068C13.6697 16.5546 14.6435 19.8305 16.4737 22.6338C16.7986 23.1347 17.1525 23.6284 17.5373 24.1094L25.7392 33.5237L22.995 36.6818L11.6876 23.7046C11.3248 23.25 10.9849 22.7776 10.6694 22.289C9.44596 20.4099 8.61328 18.3039 8.22097 16.0962C8.05182 15.1424 7.96679 14.1755 7.96687 13.2068C7.96687 4.18809 14.8457 2.06456 22.9913 1.69975ZM57.026 13.2068C57.0259 16.5564 56.0136 19.8277 54.122 22.5921L53.5376 23.4052L42.0015 36.6818L39.25 33.5219L47.6969 23.7972L48.305 22.9532C50.27 20.0829 51.3209 16.6853 51.3196 13.2068C51.3196 8.44968 49.5337 5.20086 45.8602 3.27153C44.4269 2.54978 42.8995 2.03233 41.3227 1.73423C41.5441 1.72153 41.7674 1.70882 41.9924 1.69975C50.149 2.06456 57.026 4.18809 57.026 13.2068ZM29.3238 51.2453L26.5886 48.0872L29.3329 44.9237L32.0772 48.0817L29.3238 51.2453ZM32.4964 48.57L35.2407 51.728L32.4873 54.8879L29.7431 51.7299L32.4964 48.57ZM28.9046 51.728L23.8662 57.5106C23.4905 57.9825 23.1402 58.4743 22.8116 58.9771C20.9809 61.7802 20.0071 65.0562 20.0093 68.4041C20.0093 73.1594 21.7953 76.41 25.4688 78.3376C26.2921 78.7629 27.1531 79.111 28.0406 79.3775C27.4326 79.4901 26.8064 79.5826 26.1676 79.6607C19.483 78.8603 14.3121 76.2249 14.3121 68.4078C14.3122 65.1848 15.2506 62.0315 17.0128 59.3328C17.3249 58.8482 17.668 58.3727 18.0219 57.928L26.1676 48.5809L28.9046 51.728ZM20.6409 68.4041C20.6411 65.1811 21.5795 62.0279 23.3416 59.3292C23.6556 58.8446 23.9986 58.3691 24.3508 57.9244L29.3238 52.2181L32.0681 55.3762L30.2023 57.5179C29.8266 57.9897 29.4763 58.4816 29.146 58.9844C27.3178 61.7886 26.3442 65.0639 26.3436 68.4114C26.3436 73.1485 28.1169 76.3973 31.7632 78.323C30.9724 78.6444 30.1589 78.9065 29.3293 79.1071C24.2473 77.8493 20.6409 74.9345 20.6409 68.4041ZM32.4873 55.8517L34.5129 58.1821L35.11 59.0116C37.0031 61.7779 38.0154 65.0521 38.014 68.4041C38.014 73.4716 35.836 76.3629 32.4946 77.9873C29.1478 76.3629 26.9752 73.4716 26.9752 68.4041C26.975 67.4354 27.0601 66.4685 27.2293 65.5147C27.6205 63.3073 28.452 61.2013 29.6741 59.3219C29.9863 58.8373 30.3293 58.3618 30.6832 57.9171L32.4873 55.8517ZM32.4964 78.6824C33.1055 78.9554 33.7311 79.19 34.3695 79.3848C33.7615 79.4973 33.1371 79.5899 32.4964 79.6679C31.8575 79.5899 31.2259 79.4973 30.6252 79.3848C31.2631 79.1903 31.8881 78.9557 32.4964 78.6824ZM33.2224 78.3194C36.8687 76.3883 38.6401 73.1449 38.6401 68.4078C38.6422 64.9255 37.5892 61.5242 35.62 58.6522L35.0011 57.7937L32.8993 55.3743L35.6636 52.2108L40.8544 58.1821L41.4497 59.0116C42.7847 60.967 43.6892 63.1836 44.1033 65.5147C44.2725 66.4685 44.3576 67.4354 44.3574 68.4041C44.3574 74.9381 40.751 77.8421 35.669 79.0999C34.8382 78.9009 34.0234 78.64 33.2315 78.3194H33.2224ZM39.5186 78.3412C43.1921 76.4137 44.9781 73.163 44.9781 68.4078C44.9773 64.9259 43.9246 61.5255 41.9579 58.6522L41.3372 57.7937L36.0738 51.7335L38.8253 48.5736L47.1742 58.193L47.7713 59.0225C49.6645 61.7888 50.6768 65.063 50.6753 68.415C50.6753 76.2358 45.5044 78.8712 38.8198 79.6679C38.1791 79.5899 37.5493 79.4973 36.9468 79.3848C37.8376 79.1162 38.7016 78.7656 39.5277 78.3376L39.5186 78.3412ZM35.6636 51.2453L32.9193 48.0872L35.6636 44.9237L38.4078 48.0817L35.6636 51.2453ZM32.4982 47.6044L29.754 44.4463L32.5055 41.2937L35.2498 44.4518L32.4982 47.6044ZM35.6618 30.362L38.4151 33.5219L35.6636 36.6818L32.9102 33.5219L35.6618 30.362ZM32.4982 33.0391L29.7449 29.8792L32.4892 26.7212L35.2425 29.8792L32.4982 33.0391ZM36.081 29.8792L41.3663 23.7954L41.9725 22.9514C43.9365 20.0805 44.9879 16.6834 44.989 13.2049C44.989 8.44787 43.203 5.19904 39.5295 3.26971C38.7077 2.84561 37.8486 2.49809 36.9631 2.23154C37.5681 2.11901 38.1924 2.02463 38.8362 1.9484C45.5208 2.74881 50.6917 5.38417 50.6917 13.2013C50.6922 16.551 49.6799 19.8226 47.7877 22.5866L47.2051 23.3997L38.8325 33.0355L36.081 29.8792ZM44.3555 13.2049C44.3556 14.1737 44.2706 15.1406 44.1014 16.0944C43.6888 18.4259 42.7856 20.6432 41.4516 22.5993L40.8689 23.4124L35.6599 29.4019L32.9066 26.2438L35.0283 23.7972L35.6345 22.9532C37.5996 20.0829 38.6505 16.6853 38.6492 13.2068C38.6492 8.46783 36.8778 5.22082 33.2315 3.29512C34.0212 2.97275 34.8342 2.71064 35.6636 2.51105C40.7455 3.76157 44.3537 6.67644 44.3537 13.2068L44.3555 13.2049ZM32.4873 25.7574L30.6978 23.7046C30.3349 23.25 29.9951 22.7776 29.6796 22.289C28.4561 20.4099 27.6234 18.3039 27.2311 16.0962C27.062 15.1424 26.977 14.1755 26.977 13.2068C26.977 8.13932 29.155 5.24805 32.4964 3.62363C35.8451 5.24805 38.023 8.13932 38.023 13.2068C38.0244 16.5588 37.0121 19.833 35.1191 22.5993L34.5346 23.4124L32.4873 25.7574ZM32.4964 2.93575C31.8881 2.66244 31.2631 2.42784 30.6252 2.23335C31.2302 2.12082 31.8539 2.02644 32.4964 1.95021C33.1377 2.02644 33.7621 2.12082 34.3695 2.23335C33.7311 2.42815 33.1055 2.66274 32.4964 2.93575ZM31.7704 3.29875C28.1241 5.2299 26.3509 8.47146 26.3509 13.2104C26.352 16.5579 27.3256 19.8329 29.1532 22.6374C29.4781 23.1384 29.8338 23.632 30.2186 24.113L32.0753 26.2438L29.3311 29.4019L24.3671 23.7083C24.0041 23.2527 23.6629 22.7772 23.3489 22.2926C21.5867 19.5939 20.6483 16.4407 20.6482 13.2177C20.6482 6.6837 24.2546 3.77972 29.3365 2.52194C30.1636 2.71852 30.9748 2.97697 31.7632 3.29512L31.7704 3.29875ZM25.4742 3.27515C21.7934 5.20086 20.0075 8.44242 20.0075 13.2068C20.0058 16.5546 20.9796 19.8305 22.8098 22.6338C23.1347 23.1347 23.4886 23.6284 23.8734 24.1094L28.9046 29.8829L26.1603 33.0409L18.0237 23.7046C17.6609 23.25 17.3211 22.7776 17.0055 22.289C15.2434 19.5903 14.305 16.437 14.3048 13.214C14.3048 5.39324 19.4757 2.75788 26.1603 1.9611C26.7992 2.03733 27.4308 2.13171 28.0334 2.24424C27.1481 2.50699 26.289 2.85087 25.467 3.27153L25.4742 3.27515ZM29.3311 30.3675L32.0844 33.5274L29.3402 36.6854L26.5886 33.5219L29.3311 30.3675ZM32.5037 34.0083L35.257 37.1682L32.5128 40.3263L29.7594 37.1664L32.5037 34.0083ZM32.0935 40.8091L29.3402 43.9672L26.5886 40.8055L29.3329 37.6474L32.0935 40.8091ZM32.932 40.8091L35.6636 37.6474L38.4169 40.8055L35.6636 43.9635L32.932 40.8091ZM38.8489 40.3263L36.0973 37.1664L38.8398 34.0083L41.5931 37.1682L38.8489 40.3263ZM36.3369 1.72697C36.1082 1.77416 35.885 1.82317 35.6654 1.87399C35.4458 1.82317 35.2225 1.77416 34.9938 1.72697C35.2171 1.71427 35.4403 1.70156 35.6654 1.69249C35.8904 1.68341 36.1137 1.72697 36.3369 1.72697ZM29.999 1.72697C29.7721 1.77416 29.5471 1.82317 29.3293 1.87399C29.1097 1.82317 28.8864 1.77416 28.6577 1.72697C28.881 1.71427 29.1042 1.70156 29.3293 1.69249C29.5543 1.68341 29.7776 1.72697 29.999 1.72697ZM26.1603 33.9974L28.9136 37.1573L26.1694 40.3154L23.416 37.1555L26.1603 33.9974ZM25.7483 40.7982L22.9968 43.9563L20.2525 40.7982L22.9968 37.6401L25.7483 40.7982ZM26.1694 41.281L28.9136 44.4391L26.1603 47.5971L23.416 44.4391L26.1694 41.281ZM28.6577 79.8767C28.8864 79.8295 29.1097 79.7805 29.3293 79.7278C29.5471 79.7805 29.7721 79.8295 29.999 79.8767L29.3293 79.9112L28.6577 79.8767ZM34.9938 79.8767C35.2225 79.8295 35.4458 79.7805 35.6654 79.7278C35.885 79.7805 36.1082 79.8295 36.3369 79.8767L35.6654 79.9112L34.9938 79.8767ZM38.8344 47.6044L36.0901 44.4463L38.8416 41.2937L41.5859 44.4518L38.8344 47.6044ZM39.2627 40.8055L42.016 37.6474L44.7675 40.8055L42.016 43.9635L39.2627 40.8055ZM63.3621 13.2068C63.3628 14.1754 63.2784 15.1423 63.1098 16.0962C62.6975 18.427 61.7949 20.6435 60.4617 22.5993L59.8791 23.4124L45.1777 40.3299L42.4244 37.17L54.0403 23.8045L54.6465 22.9605C56.6116 20.0902 57.6625 16.6926 57.6612 13.214C57.6612 8.45694 55.8753 5.20812 52.2017 3.27878C50.8605 2.57457 49.2487 2.04096 47.3013 1.66889C55.897 1.90847 63.3621 3.80876 63.3621 13.2068ZM4.33145 22.2817C2.56932 19.583 1.63091 16.4298 1.63075 13.2068C1.63075 3.80876 9.09579 1.90847 17.6843 1.66163C15.7477 2.0337 14.136 2.56731 12.7947 3.27153C9.11939 5.20086 7.33344 8.44242 7.33344 13.2068C7.33456 16.5542 8.30813 19.8293 10.1358 22.6338C10.4607 23.1347 10.8164 23.6284 11.2012 24.1094L22.5757 37.1646L19.8314 40.3227L5.35329 23.7046C4.99029 23.2491 4.64545 22.7808 4.33145 22.289V22.2817ZM1.63075 68.4041C1.63091 65.1811 2.56932 62.0279 4.33145 59.3292C4.64545 58.8446 4.98848 58.3691 5.34059 57.9244L19.8314 41.2937L22.5757 44.4518L11.1921 57.5197C10.8164 57.9916 10.4661 58.4834 10.1358 58.9862C8.30765 61.7905 7.33404 65.0657 7.33344 68.4132C7.33344 73.1685 9.11939 76.4191 12.7929 78.3466C14.136 79.0527 15.7477 79.5845 17.6934 79.9565C9.09579 79.7115 1.63075 77.8003 1.63075 68.4041ZM47.3085 79.9529C49.2469 79.5808 50.8586 79.0454 52.209 78.343C55.8825 76.4155 57.6685 73.1648 57.6685 68.4096C57.6705 64.9273 56.6176 61.5261 54.6483 58.654L54.0294 57.7955L42.4353 44.4518L45.1795 41.2937L59.861 58.1876L60.4563 59.017C61.7913 60.9724 62.6957 63.189 63.1098 65.5201C63.2785 66.474 63.3629 67.4409 63.3621 68.4096C63.3621 77.8003 55.897 79.7115 47.3085 79.9529Z"/>
</mask>
<path d="M60.9772 58.6486L60.3565 57.7901L45.5988 40.8055L60.3746 23.7972L60.9808 22.9532C62.9448 20.0823 63.9962 16.6852 63.9973 13.2068C63.9973 8.44968 62.2114 5.20086 58.5378 3.27153C55.5849 1.72697 51.3378 1.00098 45.1705 1.00098C44.0524 1.00098 42.9925 1.02457 42.0015 1.07358C41.0069 1.02518 39.9512 1.00098 38.8344 1.00098C37.7145 1.00098 36.6564 1.02457 35.6654 1.07358C34.669 1.02457 33.6144 1.00098 32.4964 1.00098C31.3784 1.00098 30.3184 1.02457 29.3293 1.07358C28.3328 1.02457 27.2783 1.00098 26.1603 1.00098C25.0423 1.00098 23.9823 1.02457 22.9913 1.07358C22.0016 1.02518 20.9458 1.00098 19.8242 1.00098C13.6532 1.00098 9.40797 1.72697 6.4568 3.27153C2.78327 5.20086 0.997323 8.44242 0.997323 13.2068C0.995616 16.5546 1.96941 19.8305 3.79966 22.6338C4.12454 23.1347 4.47847 23.6284 4.86324 24.1094L19.4122 40.8073L4.85417 57.5051C4.47847 57.977 4.12817 58.4689 3.79966 58.9717C1.96792 61.7763 0.994031 65.0543 0.997323 68.4041C0.997323 73.1594 2.78327 76.41 6.4568 78.3376C9.40797 79.8876 13.655 80.6099 19.8242 80.6099C20.9422 80.6099 21.9979 80.5857 22.9913 80.5373C23.9878 80.5845 25.0423 80.6099 26.1603 80.6099C27.2783 80.6099 28.3383 80.5845 29.3293 80.5373C30.3239 80.5845 31.3796 80.6087 32.4964 80.6099C33.6144 80.6099 34.6744 80.5845 35.6654 80.5373C36.6618 80.5845 37.7145 80.6099 38.8344 80.6099C39.9542 80.6099 41.0123 80.5845 42.0015 80.5373C42.9979 80.5845 44.0524 80.6099 45.1705 80.6099C51.3414 80.6099 55.5849 79.8839 58.5378 78.3376C62.2114 76.41 63.9973 73.1594 63.9973 68.4041C63.9965 64.9223 62.9438 61.5219 60.9772 58.6486ZM42.0015 79.9112L41.3318 79.8767C42.9085 79.5772 44.4357 79.0591 45.8692 78.3376C49.5428 76.41 51.3287 73.1594 51.3287 68.4041C51.3308 64.9218 50.2778 61.5206 48.3086 58.6486L47.6879 57.7901L39.2591 48.0872L42.016 44.9237L53.5321 58.1731L54.1292 59.0025C56.0224 61.7688 57.0347 65.043 57.0332 68.3951C57.026 77.4228 50.149 79.5463 42.0015 79.9112ZM7.96687 68.4041C7.96667 67.4354 8.0517 66.4685 8.22097 65.5147C8.61328 63.3071 9.44596 61.201 10.6694 59.3219C10.9816 58.8373 11.3246 58.3618 11.6785 57.9171L22.9968 44.9237L25.741 48.0817L17.5282 57.5106C17.1525 57.9825 16.8022 58.4743 16.4737 58.9771C14.643 61.7802 13.6691 65.0562 13.6714 68.4041C13.6714 73.1594 15.4573 76.41 19.1309 78.3376C20.5642 79.0597 22.0915 79.5777 23.6683 79.8767L22.9968 79.9112C14.8457 79.5463 7.96687 77.4228 7.96687 68.4041ZM22.9913 1.69975C23.2164 1.69975 23.4396 1.72153 23.6629 1.73423C22.0859 2.03175 20.5585 2.54923 19.1254 3.27153C15.4573 5.20086 13.6714 8.44242 13.6714 13.2068C13.6697 16.5546 14.6435 19.8305 16.4737 22.6338C16.7986 23.1347 17.1525 23.6284 17.5373 24.1094L25.7392 33.5237L22.995 36.6818L11.6876 23.7046C11.3248 23.25 10.9849 22.7776 10.6694 22.289C9.44596 20.4099 8.61328 18.3039 8.22097 16.0962C8.05182 15.1424 7.96679 14.1755 7.96687 13.2068C7.96687 4.18809 14.8457 2.06456 22.9913 1.69975ZM57.026 13.2068C57.0259 16.5564 56.0136 19.8277 54.122 22.5921L53.5376 23.4052L42.0015 36.6818L39.25 33.5219L47.6969 23.7972L48.305 22.9532C50.27 20.0829 51.3209 16.6853 51.3196 13.2068C51.3196 8.44968 49.5337 5.20086 45.8602 3.27153C44.4269 2.54978 42.8995 2.03233 41.3227 1.73423C41.5441 1.72153 41.7674 1.70882 41.9924 1.69975C50.149 2.06456 57.026 4.18809 57.026 13.2068ZM29.3238 51.2453L26.5886 48.0872L29.3329 44.9237L32.0772 48.0817L29.3238 51.2453ZM32.4964 48.57L35.2407 51.728L32.4873 54.8879L29.7431 51.7299L32.4964 48.57ZM28.9046 51.728L23.8662 57.5106C23.4905 57.9825 23.1402 58.4743 22.8116 58.9771C20.9809 61.7802 20.0071 65.0562 20.0093 68.4041C20.0093 73.1594 21.7953 76.41 25.4688 78.3376C26.2921 78.7629 27.1531 79.111 28.0406 79.3775C27.4326 79.4901 26.8064 79.5826 26.1676 79.6607C19.483 78.8603 14.3121 76.2249 14.3121 68.4078C14.3122 65.1848 15.2506 62.0315 17.0128 59.3328C17.3249 58.8482 17.668 58.3727 18.0219 57.928L26.1676 48.5809L28.9046 51.728ZM20.6409 68.4041C20.6411 65.1811 21.5795 62.0279 23.3416 59.3292C23.6556 58.8446 23.9986 58.3691 24.3508 57.9244L29.3238 52.2181L32.0681 55.3762L30.2023 57.5179C29.8266 57.9897 29.4763 58.4816 29.146 58.9844C27.3178 61.7886 26.3442 65.0639 26.3436 68.4114C26.3436 73.1485 28.1169 76.3973 31.7632 78.323C30.9724 78.6444 30.1589 78.9065 29.3293 79.1071C24.2473 77.8493 20.6409 74.9345 20.6409 68.4041ZM32.4873 55.8517L34.5129 58.1821L35.11 59.0116C37.0031 61.7779 38.0154 65.0521 38.014 68.4041C38.014 73.4716 35.836 76.3629 32.4946 77.9873C29.1478 76.3629 26.9752 73.4716 26.9752 68.4041C26.975 67.4354 27.0601 66.4685 27.2293 65.5147C27.6205 63.3073 28.452 61.2013 29.6741 59.3219C29.9863 58.8373 30.3293 58.3618 30.6832 57.9171L32.4873 55.8517ZM32.4964 78.6824C33.1055 78.9554 33.7311 79.19 34.3695 79.3848C33.7615 79.4973 33.1371 79.5899 32.4964 79.6679C31.8575 79.5899 31.2259 79.4973 30.6252 79.3848C31.2631 79.1903 31.8881 78.9557 32.4964 78.6824ZM33.2224 78.3194C36.8687 76.3883 38.6401 73.1449 38.6401 68.4078C38.6422 64.9255 37.5892 61.5242 35.62 58.6522L35.0011 57.7937L32.8993 55.3743L35.6636 52.2108L40.8544 58.1821L41.4497 59.0116C42.7847 60.967 43.6892 63.1836 44.1033 65.5147C44.2725 66.4685 44.3576 67.4354 44.3574 68.4041C44.3574 74.9381 40.751 77.8421 35.669 79.0999C34.8382 78.9009 34.0234 78.64 33.2315 78.3194H33.2224ZM39.5186 78.3412C43.1921 76.4137 44.9781 73.163 44.9781 68.4078C44.9773 64.9259 43.9246 61.5255 41.9579 58.6522L41.3372 57.7937L36.0738 51.7335L38.8253 48.5736L47.1742 58.193L47.7713 59.0225C49.6645 61.7888 50.6768 65.063 50.6753 68.415C50.6753 76.2358 45.5044 78.8712 38.8198 79.6679C38.1791 79.5899 37.5493 79.4973 36.9468 79.3848C37.8376 79.1162 38.7016 78.7656 39.5277 78.3376L39.5186 78.3412ZM35.6636 51.2453L32.9193 48.0872L35.6636 44.9237L38.4078 48.0817L35.6636 51.2453ZM32.4982 47.6044L29.754 44.4463L32.5055 41.2937L35.2498 44.4518L32.4982 47.6044ZM35.6618 30.362L38.4151 33.5219L35.6636 36.6818L32.9102 33.5219L35.6618 30.362ZM32.4982 33.0391L29.7449 29.8792L32.4892 26.7212L35.2425 29.8792L32.4982 33.0391ZM36.081 29.8792L41.3663 23.7954L41.9725 22.9514C43.9365 20.0805 44.9879 16.6834 44.989 13.2049C44.989 8.44787 43.203 5.19904 39.5295 3.26971C38.7077 2.84561 37.8486 2.49809 36.9631 2.23154C37.5681 2.11901 38.1924 2.02463 38.8362 1.9484C45.5208 2.74881 50.6917 5.38417 50.6917 13.2013C50.6922 16.551 49.6799 19.8226 47.7877 22.5866L47.2051 23.3997L38.8325 33.0355L36.081 29.8792ZM44.3555 13.2049C44.3556 14.1737 44.2706 15.1406 44.1014 16.0944C43.6888 18.4259 42.7856 20.6432 41.4516 22.5993L40.8689 23.4124L35.6599 29.4019L32.9066 26.2438L35.0283 23.7972L35.6345 22.9532C37.5996 20.0829 38.6505 16.6853 38.6492 13.2068C38.6492 8.46783 36.8778 5.22082 33.2315 3.29512C34.0212 2.97275 34.8342 2.71064 35.6636 2.51105C40.7455 3.76157 44.3537 6.67644 44.3537 13.2068L44.3555 13.2049ZM32.4873 25.7574L30.6978 23.7046C30.3349 23.25 29.9951 22.7776 29.6796 22.289C28.4561 20.4099 27.6234 18.3039 27.2311 16.0962C27.062 15.1424 26.977 14.1755 26.977 13.2068C26.977 8.13932 29.155 5.24805 32.4964 3.62363C35.8451 5.24805 38.023 8.13932 38.023 13.2068C38.0244 16.5588 37.0121 19.833 35.1191 22.5993L34.5346 23.4124L32.4873 25.7574ZM32.4964 2.93575C31.8881 2.66244 31.2631 2.42784 30.6252 2.23335C31.2302 2.12082 31.8539 2.02644 32.4964 1.95021C33.1377 2.02644 33.7621 2.12082 34.3695 2.23335C33.7311 2.42815 33.1055 2.66274 32.4964 2.93575ZM31.7704 3.29875C28.1241 5.2299 26.3509 8.47146 26.3509 13.2104C26.352 16.5579 27.3256 19.8329 29.1532 22.6374C29.4781 23.1384 29.8338 23.632 30.2186 24.113L32.0753 26.2438L29.3311 29.4019L24.3671 23.7083C24.0041 23.2527 23.6629 22.7772 23.3489 22.2926C21.5867 19.5939 20.6483 16.4407 20.6482 13.2177C20.6482 6.6837 24.2546 3.77972 29.3365 2.52194C30.1636 2.71852 30.9748 2.97697 31.7632 3.29512L31.7704 3.29875ZM25.4742 3.27515C21.7934 5.20086 20.0075 8.44242 20.0075 13.2068C20.0058 16.5546 20.9796 19.8305 22.8098 22.6338C23.1347 23.1347 23.4886 23.6284 23.8734 24.1094L28.9046 29.8829L26.1603 33.0409L18.0237 23.7046C17.6609 23.25 17.3211 22.7776 17.0055 22.289C15.2434 19.5903 14.305 16.437 14.3048 13.214C14.3048 5.39324 19.4757 2.75788 26.1603 1.9611C26.7992 2.03733 27.4308 2.13171 28.0334 2.24424C27.1481 2.50699 26.289 2.85087 25.467 3.27153L25.4742 3.27515ZM29.3311 30.3675L32.0844 33.5274L29.3402 36.6854L26.5886 33.5219L29.3311 30.3675ZM32.5037 34.0083L35.257 37.1682L32.5128 40.3263L29.7594 37.1664L32.5037 34.0083ZM32.0935 40.8091L29.3402 43.9672L26.5886 40.8055L29.3329 37.6474L32.0935 40.8091ZM32.932 40.8091L35.6636 37.6474L38.4169 40.8055L35.6636 43.9635L32.932 40.8091ZM38.8489 40.3263L36.0973 37.1664L38.8398 34.0083L41.5931 37.1682L38.8489 40.3263ZM36.3369 1.72697C36.1082 1.77416 35.885 1.82317 35.6654 1.87399C35.4458 1.82317 35.2225 1.77416 34.9938 1.72697C35.2171 1.71427 35.4403 1.70156 35.6654 1.69249C35.8904 1.68341 36.1137 1.72697 36.3369 1.72697ZM29.999 1.72697C29.7721 1.77416 29.5471 1.82317 29.3293 1.87399C29.1097 1.82317 28.8864 1.77416 28.6577 1.72697C28.881 1.71427 29.1042 1.70156 29.3293 1.69249C29.5543 1.68341 29.7776 1.72697 29.999 1.72697ZM26.1603 33.9974L28.9136 37.1573L26.1694 40.3154L23.416 37.1555L26.1603 33.9974ZM25.7483 40.7982L22.9968 43.9563L20.2525 40.7982L22.9968 37.6401L25.7483 40.7982ZM26.1694 41.281L28.9136 44.4391L26.1603 47.5971L23.416 44.4391L26.1694 41.281ZM28.6577 79.8767C28.8864 79.8295 29.1097 79.7805 29.3293 79.7278C29.5471 79.7805 29.7721 79.8295 29.999 79.8767L29.3293 79.9112L28.6577 79.8767ZM34.9938 79.8767C35.2225 79.8295 35.4458 79.7805 35.6654 79.7278C35.885 79.7805 36.1082 79.8295 36.3369 79.8767L35.6654 79.9112L34.9938 79.8767ZM38.8344 47.6044L36.0901 44.4463L38.8416 41.2937L41.5859 44.4518L38.8344 47.6044ZM39.2627 40.8055L42.016 37.6474L44.7675 40.8055L42.016 43.9635L39.2627 40.8055ZM63.3621 13.2068C63.3628 14.1754 63.2784 15.1423 63.1098 16.0962C62.6975 18.427 61.7949 20.6435 60.4617 22.5993L59.8791 23.4124L45.1777 40.3299L42.4244 37.17L54.0403 23.8045L54.6465 22.9605C56.6116 20.0902 57.6625 16.6926 57.6612 13.214C57.6612 8.45694 55.8753 5.20812 52.2017 3.27878C50.8605 2.57457 49.2487 2.04096 47.3013 1.66889C55.897 1.90847 63.3621 3.80876 63.3621 13.2068ZM4.33145 22.2817C2.56932 19.583 1.63091 16.4298 1.63075 13.2068C1.63075 3.80876 9.09579 1.90847 17.6843 1.66163C15.7477 2.0337 14.136 2.56731 12.7947 3.27153C9.11939 5.20086 7.33344 8.44242 7.33344 13.2068C7.33456 16.5542 8.30813 19.8293 10.1358 22.6338C10.4607 23.1347 10.8164 23.6284 11.2012 24.1094L22.5757 37.1646L19.8314 40.3227L5.35329 23.7046C4.99029 23.2491 4.64545 22.7808 4.33145 22.289V22.2817ZM1.63075 68.4041C1.63091 65.1811 2.56932 62.0279 4.33145 59.3292C4.64545 58.8446 4.98848 58.3691 5.34059 57.9244L19.8314 41.2937L22.5757 44.4518L11.1921 57.5197C10.8164 57.9916 10.4661 58.4834 10.1358 58.9862C8.30765 61.7905 7.33404 65.0657 7.33344 68.4132C7.33344 73.1685 9.11939 76.4191 12.7929 78.3466C14.136 79.0527 15.7477 79.5845 17.6934 79.9565C9.09579 79.7115 1.63075 77.8003 1.63075 68.4041ZM47.3085 79.9529C49.2469 79.5808 50.8586 79.0454 52.209 78.343C55.8825 76.4155 57.6685 73.1648 57.6685 68.4096C57.6705 64.9273 56.6176 61.5261 54.6483 58.654L54.0294 57.7955L42.4353 44.4518L45.1795 41.2937L59.861 58.1876L60.4563 59.017C61.7913 60.9724 62.6957 63.189 63.1098 65.5201C63.2785 66.474 63.3629 67.4409 63.3621 68.4096C63.3621 77.8003 55.897 79.7115 47.3085 79.9529Z" fill="url(#paint0_linear_1_1886)"/>
<path d="M60.9772 58.6486L60.3565 57.7901L45.5988 40.8055L60.3746 23.7972L60.9808 22.9532C62.9448 20.0823 63.9962 16.6852 63.9973 13.2068C63.9973 8.44968 62.2114 5.20086 58.5378 3.27153C55.5849 1.72697 51.3378 1.00098 45.1705 1.00098C44.0524 1.00098 42.9925 1.02457 42.0015 1.07358C41.0069 1.02518 39.9512 1.00098 38.8344 1.00098C37.7145 1.00098 36.6564 1.02457 35.6654 1.07358C34.669 1.02457 33.6144 1.00098 32.4964 1.00098C31.3784 1.00098 30.3184 1.02457 29.3293 1.07358C28.3328 1.02457 27.2783 1.00098 26.1603 1.00098C25.0423 1.00098 23.9823 1.02457 22.9913 1.07358C22.0016 1.02518 20.9458 1.00098 19.8242 1.00098C13.6532 1.00098 9.40797 1.72697 6.4568 3.27153C2.78327 5.20086 0.997323 8.44242 0.997323 13.2068C0.995616 16.5546 1.96941 19.8305 3.79966 22.6338C4.12454 23.1347 4.47847 23.6284 4.86324 24.1094L19.4122 40.8073L4.85417 57.5051C4.47847 57.977 4.12817 58.4689 3.79966 58.9717C1.96792 61.7763 0.994031 65.0543 0.997323 68.4041C0.997323 73.1594 2.78327 76.41 6.4568 78.3376C9.40797 79.8876 13.655 80.6099 19.8242 80.6099C20.9422 80.6099 21.9979 80.5857 22.9913 80.5373C23.9878 80.5845 25.0423 80.6099 26.1603 80.6099C27.2783 80.6099 28.3383 80.5845 29.3293 80.5373C30.3239 80.5845 31.3796 80.6087 32.4964 80.6099C33.6144 80.6099 34.6744 80.5845 35.6654 80.5373C36.6618 80.5845 37.7145 80.6099 38.8344 80.6099C39.9542 80.6099 41.0123 80.5845 42.0015 80.5373C42.9979 80.5845 44.0524 80.6099 45.1705 80.6099C51.3414 80.6099 55.5849 79.8839 58.5378 78.3376C62.2114 76.41 63.9973 73.1594 63.9973 68.4041C63.9965 64.9223 62.9438 61.5219 60.9772 58.6486ZM42.0015 79.9112L41.3318 79.8767C42.9085 79.5772 44.4357 79.0591 45.8692 78.3376C49.5428 76.41 51.3287 73.1594 51.3287 68.4041C51.3308 64.9218 50.2778 61.5206 48.3086 58.6486L47.6879 57.7901L39.2591 48.0872L42.016 44.9237L53.5321 58.1731L54.1292 59.0025C56.0224 61.7688 57.0347 65.043 57.0332 68.3951C57.026 77.4228 50.149 79.5463 42.0015 79.9112ZM7.96687 68.4041C7.96667 67.4354 8.0517 66.4685 8.22097 65.5147C8.61328 63.3071 9.44596 61.201 10.6694 59.3219C10.9816 58.8373 11.3246 58.3618 11.6785 57.9171L22.9968 44.9237L25.741 48.0817L17.5282 57.5106C17.1525 57.9825 16.8022 58.4743 16.4737 58.9771C14.643 61.7802 13.6691 65.0562 13.6714 68.4041C13.6714 73.1594 15.4573 76.41 19.1309 78.3376C20.5642 79.0597 22.0915 79.5777 23.6683 79.8767L22.9968 79.9112C14.8457 79.5463 7.96687 77.4228 7.96687 68.4041ZM22.9913 1.69975C23.2164 1.69975 23.4396 1.72153 23.6629 1.73423C22.0859 2.03175 20.5585 2.54923 19.1254 3.27153C15.4573 5.20086 13.6714 8.44242 13.6714 13.2068C13.6697 16.5546 14.6435 19.8305 16.4737 22.6338C16.7986 23.1347 17.1525 23.6284 17.5373 24.1094L25.7392 33.5237L22.995 36.6818L11.6876 23.7046C11.3248 23.25 10.9849 22.7776 10.6694 22.289C9.44596 20.4099 8.61328 18.3039 8.22097 16.0962C8.05182 15.1424 7.96679 14.1755 7.96687 13.2068C7.96687 4.18809 14.8457 2.06456 22.9913 1.69975ZM57.026 13.2068C57.0259 16.5564 56.0136 19.8277 54.122 22.5921L53.5376 23.4052L42.0015 36.6818L39.25 33.5219L47.6969 23.7972L48.305 22.9532C50.27 20.0829 51.3209 16.6853 51.3196 13.2068C51.3196 8.44968 49.5337 5.20086 45.8602 3.27153C44.4269 2.54978 42.8995 2.03233 41.3227 1.73423C41.5441 1.72153 41.7674 1.70882 41.9924 1.69975C50.149 2.06456 57.026 4.18809 57.026 13.2068ZM29.3238 51.2453L26.5886 48.0872L29.3329 44.9237L32.0772 48.0817L29.3238 51.2453ZM32.4964 48.57L35.2407 51.728L32.4873 54.8879L29.7431 51.7299L32.4964 48.57ZM28.9046 51.728L23.8662 57.5106C23.4905 57.9825 23.1402 58.4743 22.8116 58.9771C20.9809 61.7802 20.0071 65.0562 20.0093 68.4041C20.0093 73.1594 21.7953 76.41 25.4688 78.3376C26.2921 78.7629 27.1531 79.111 28.0406 79.3775C27.4326 79.4901 26.8064 79.5826 26.1676 79.6607C19.483 78.8603 14.3121 76.2249 14.3121 68.4078C14.3122 65.1848 15.2506 62.0315 17.0128 59.3328C17.3249 58.8482 17.668 58.3727 18.0219 57.928L26.1676 48.5809L28.9046 51.728ZM20.6409 68.4041C20.6411 65.1811 21.5795 62.0279 23.3416 59.3292C23.6556 58.8446 23.9986 58.3691 24.3508 57.9244L29.3238 52.2181L32.0681 55.3762L30.2023 57.5179C29.8266 57.9897 29.4763 58.4816 29.146 58.9844C27.3178 61.7886 26.3442 65.0639 26.3436 68.4114C26.3436 73.1485 28.1169 76.3973 31.7632 78.323C30.9724 78.6444 30.1589 78.9065 29.3293 79.1071C24.2473 77.8493 20.6409 74.9345 20.6409 68.4041ZM32.4873 55.8517L34.5129 58.1821L35.11 59.0116C37.0031 61.7779 38.0154 65.0521 38.014 68.4041C38.014 73.4716 35.836 76.3629 32.4946 77.9873C29.1478 76.3629 26.9752 73.4716 26.9752 68.4041C26.975 67.4354 27.0601 66.4685 27.2293 65.5147C27.6205 63.3073 28.452 61.2013 29.6741 59.3219C29.9863 58.8373 30.3293 58.3618 30.6832 57.9171L32.4873 55.8517ZM32.4964 78.6824C33.1055 78.9554 33.7311 79.19 34.3695 79.3848C33.7615 79.4973 33.1371 79.5899 32.4964 79.6679C31.8575 79.5899 31.2259 79.4973 30.6252 79.3848C31.2631 79.1903 31.8881 78.9557 32.4964 78.6824ZM33.2224 78.3194C36.8687 76.3883 38.6401 73.1449 38.6401 68.4078C38.6422 64.9255 37.5892 61.5242 35.62 58.6522L35.0011 57.7937L32.8993 55.3743L35.6636 52.2108L40.8544 58.1821L41.4497 59.0116C42.7847 60.967 43.6892 63.1836 44.1033 65.5147C44.2725 66.4685 44.3576 67.4354 44.3574 68.4041C44.3574 74.9381 40.751 77.8421 35.669 79.0999C34.8382 78.9009 34.0234 78.64 33.2315 78.3194H33.2224ZM39.5186 78.3412C43.1921 76.4137 44.9781 73.163 44.9781 68.4078C44.9773 64.9259 43.9246 61.5255 41.9579 58.6522L41.3372 57.7937L36.0738 51.7335L38.8253 48.5736L47.1742 58.193L47.7713 59.0225C49.6645 61.7888 50.6768 65.063 50.6753 68.415C50.6753 76.2358 45.5044 78.8712 38.8198 79.6679C38.1791 79.5899 37.5493 79.4973 36.9468 79.3848C37.8376 79.1162 38.7016 78.7656 39.5277 78.3376L39.5186 78.3412ZM35.6636 51.2453L32.9193 48.0872L35.6636 44.9237L38.4078 48.0817L35.6636 51.2453ZM32.4982 47.6044L29.754 44.4463L32.5055 41.2937L35.2498 44.4518L32.4982 47.6044ZM35.6618 30.362L38.4151 33.5219L35.6636 36.6818L32.9102 33.5219L35.6618 30.362ZM32.4982 33.0391L29.7449 29.8792L32.4892 26.7212L35.2425 29.8792L32.4982 33.0391ZM36.081 29.8792L41.3663 23.7954L41.9725 22.9514C43.9365 20.0805 44.9879 16.6834 44.989 13.2049C44.989 8.44787 43.203 5.19904 39.5295 3.26971C38.7077 2.84561 37.8486 2.49809 36.9631 2.23154C37.5681 2.11901 38.1924 2.02463 38.8362 1.9484C45.5208 2.74881 50.6917 5.38417 50.6917 13.2013C50.6922 16.551 49.6799 19.8226 47.7877 22.5866L47.2051 23.3997L38.8325 33.0355L36.081 29.8792ZM44.3555 13.2049C44.3556 14.1737 44.2706 15.1406 44.1014 16.0944C43.6888 18.4259 42.7856 20.6432 41.4516 22.5993L40.8689 23.4124L35.6599 29.4019L32.9066 26.2438L35.0283 23.7972L35.6345 22.9532C37.5996 20.0829 38.6505 16.6853 38.6492 13.2068C38.6492 8.46783 36.8778 5.22082 33.2315 3.29512C34.0212 2.97275 34.8342 2.71064 35.6636 2.51105C40.7455 3.76157 44.3537 6.67644 44.3537 13.2068L44.3555 13.2049ZM32.4873 25.7574L30.6978 23.7046C30.3349 23.25 29.9951 22.7776 29.6796 22.289C28.4561 20.4099 27.6234 18.3039 27.2311 16.0962C27.062 15.1424 26.977 14.1755 26.977 13.2068C26.977 8.13932 29.155 5.24805 32.4964 3.62363C35.8451 5.24805 38.023 8.13932 38.023 13.2068C38.0244 16.5588 37.0121 19.833 35.1191 22.5993L34.5346 23.4124L32.4873 25.7574ZM32.4964 2.93575C31.8881 2.66244 31.2631 2.42784 30.6252 2.23335C31.2302 2.12082 31.8539 2.02644 32.4964 1.95021C33.1377 2.02644 33.7621 2.12082 34.3695 2.23335C33.7311 2.42815 33.1055 2.66274 32.4964 2.93575ZM31.7704 3.29875C28.1241 5.2299 26.3509 8.47146 26.3509 13.2104C26.352 16.5579 27.3256 19.8329 29.1532 22.6374C29.4781 23.1384 29.8338 23.632 30.2186 24.113L32.0753 26.2438L29.3311 29.4019L24.3671 23.7083C24.0041 23.2527 23.6629 22.7772 23.3489 22.2926C21.5867 19.5939 20.6483 16.4407 20.6482 13.2177C20.6482 6.6837 24.2546 3.77972 29.3365 2.52194C30.1636 2.71852 30.9748 2.97697 31.7632 3.29512L31.7704 3.29875ZM25.4742 3.27515C21.7934 5.20086 20.0075 8.44242 20.0075 13.2068C20.0058 16.5546 20.9796 19.8305 22.8098 22.6338C23.1347 23.1347 23.4886 23.6284 23.8734 24.1094L28.9046 29.8829L26.1603 33.0409L18.0237 23.7046C17.6609 23.25 17.3211 22.7776 17.0055 22.289C15.2434 19.5903 14.305 16.437 14.3048 13.214C14.3048 5.39324 19.4757 2.75788 26.1603 1.9611C26.7992 2.03733 27.4308 2.13171 28.0334 2.24424C27.1481 2.50699 26.289 2.85087 25.467 3.27153L25.4742 3.27515ZM29.3311 30.3675L32.0844 33.5274L29.3402 36.6854L26.5886 33.5219L29.3311 30.3675ZM32.5037 34.0083L35.257 37.1682L32.5128 40.3263L29.7594 37.1664L32.5037 34.0083ZM32.0935 40.8091L29.3402 43.9672L26.5886 40.8055L29.3329 37.6474L32.0935 40.8091ZM32.932 40.8091L35.6636 37.6474L38.4169 40.8055L35.6636 43.9635L32.932 40.8091ZM38.8489 40.3263L36.0973 37.1664L38.8398 34.0083L41.5931 37.1682L38.8489 40.3263ZM36.3369 1.72697C36.1082 1.77416 35.885 1.82317 35.6654 1.87399C35.4458 1.82317 35.2225 1.77416 34.9938 1.72697C35.2171 1.71427 35.4403 1.70156 35.6654 1.69249C35.8904 1.68341 36.1137 1.72697 36.3369 1.72697ZM29.999 1.72697C29.7721 1.77416 29.5471 1.82317 29.3293 1.87399C29.1097 1.82317 28.8864 1.77416 28.6577 1.72697C28.881 1.71427 29.1042 1.70156 29.3293 1.69249C29.5543 1.68341 29.7776 1.72697 29.999 1.72697ZM26.1603 33.9974L28.9136 37.1573L26.1694 40.3154L23.416 37.1555L26.1603 33.9974ZM25.7483 40.7982L22.9968 43.9563L20.2525 40.7982L22.9968 37.6401L25.7483 40.7982ZM26.1694 41.281L28.9136 44.4391L26.1603 47.5971L23.416 44.4391L26.1694 41.281ZM28.6577 79.8767C28.8864 79.8295 29.1097 79.7805 29.3293 79.7278C29.5471 79.7805 29.7721 79.8295 29.999 79.8767L29.3293 79.9112L28.6577 79.8767ZM34.9938 79.8767C35.2225 79.8295 35.4458 79.7805 35.6654 79.7278C35.885 79.7805 36.1082 79.8295 36.3369 79.8767L35.6654 79.9112L34.9938 79.8767ZM38.8344 47.6044L36.0901 44.4463L38.8416 41.2937L41.5859 44.4518L38.8344 47.6044ZM39.2627 40.8055L42.016 37.6474L44.7675 40.8055L42.016 43.9635L39.2627 40.8055ZM63.3621 13.2068C63.3628 14.1754 63.2784 15.1423 63.1098 16.0962C62.6975 18.427 61.7949 20.6435 60.4617 22.5993L59.8791 23.4124L45.1777 40.3299L42.4244 37.17L54.0403 23.8045L54.6465 22.9605C56.6116 20.0902 57.6625 16.6926 57.6612 13.214C57.6612 8.45694 55.8753 5.20812 52.2017 3.27878C50.8605 2.57457 49.2487 2.04096 47.3013 1.66889C55.897 1.90847 63.3621 3.80876 63.3621 13.2068ZM4.33145 22.2817C2.56932 19.583 1.63091 16.4298 1.63075 13.2068C1.63075 3.80876 9.09579 1.90847 17.6843 1.66163C15.7477 2.0337 14.136 2.56731 12.7947 3.27153C9.11939 5.20086 7.33344 8.44242 7.33344 13.2068C7.33456 16.5542 8.30813 19.8293 10.1358 22.6338C10.4607 23.1347 10.8164 23.6284 11.2012 24.1094L22.5757 37.1646L19.8314 40.3227L5.35329 23.7046C4.99029 23.2491 4.64545 22.7808 4.33145 22.289V22.2817ZM1.63075 68.4041C1.63091 65.1811 2.56932 62.0279 4.33145 59.3292C4.64545 58.8446 4.98848 58.3691 5.34059 57.9244L19.8314 41.2937L22.5757 44.4518L11.1921 57.5197C10.8164 57.9916 10.4661 58.4834 10.1358 58.9862C8.30765 61.7905 7.33404 65.0657 7.33344 68.4132C7.33344 73.1685 9.11939 76.4191 12.7929 78.3466C14.136 79.0527 15.7477 79.5845 17.6934 79.9565C9.09579 79.7115 1.63075 77.8003 1.63075 68.4041ZM47.3085 79.9529C49.2469 79.5808 50.8586 79.0454 52.209 78.343C55.8825 76.4155 57.6685 73.1648 57.6685 68.4096C57.6705 64.9273 56.6176 61.5261 54.6483 58.654L54.0294 57.7955L42.4353 44.4518L45.1795 41.2937L59.861 58.1876L60.4563 59.017C61.7913 60.9724 62.6957 63.189 63.1098 65.5201C63.2785 66.474 63.3629 67.4409 63.3621 68.4096C63.3621 77.8003 55.897 79.7115 47.3085 79.9529Z" stroke="url(#paint1_linear_1_1886)" stroke-width="0.5" mask="url(#path-1-outside-1_1_1886)"/>
<defs>
<linearGradient id="paint0_linear_1_1886" x1="0.997314" y1="40.8055" x2="63.9973" y2="40.8055" gradientUnits="userSpaceOnUse">
<stop stop-color="#FFAA47"/>
<stop offset="1" stop-color="#F37335"/>
</linearGradient>
<linearGradient id="paint1_linear_1_1886" x1="0.997314" y1="40.8055" x2="63.9973" y2="40.8055" gradientUnits="userSpaceOnUse">
<stop stop-color="#FFAA47"/>
<stop offset="1" stop-color="#F37335"/>
</linearGradient>
</defs>
</svg>
